<?xml version="1.0" encoding="UTF-8"?>
<svg version="1.1" xmlns="http://www.w3.org/2000/svg" width="500" height="500">
<path d="M0 0 C29.04 0 58.08 0 88 0 C87 5 87 5 86 8 C85.33100236 16.53246175 85.49530204 23.60047975 90 31 C90.54333984 31.95326172 90.54333984 31.95326172 91.09765625 32.92578125 C94.81035792 38.80317677 99.90877549 41.75162087 106.25 44.3125 C116.98784521 46.28110495 125.85350546 45.09766303 135 39 C137.60063171 38.75949097 137.60063171 38.75949097 140.7565918 38.77294922 C142.52808846 38.77317581 142.52808846 38.77317581 144.33537292 38.77340698 C146.24797661 38.78889084 146.24797661 38.78889084 148.19921875 38.8046875 C150.15720146 38.80893234 150.15720146 38.80893234 152.15473938 38.81326294 C155.62195515 38.82089253 159.08900288 38.84053507 162.55615234 38.8626709 C166.09535448 38.88314395 169.63458382 38.89226777 173.17382812 38.90234375 C180.11595437 38.9237817 187.05796911 38.95790944 194 39 C193.53085417 40.60352671 193.05856948 42.20613531 192.58496094 43.80834961 C192.32229431 44.70089951 192.05962769 45.5934494 191.78900146 46.51304626 C186.40718443 63.47667761 171.34630438 78.7030143 156 87 C135.83999682 97.42503832 113.94619936 100.23019107 92 94 C72.80067952 87.83869715 56.72674915 76.19473934 46 59 C45.430334 57.62795339 44.86666514 56.2533803 44.3125 54.875 C43.549375 53.92625 42.78625 52.9775 42 52 C39.09402312 51.84310085 39.09402312 51.84310085 35.8125 52 C29.95005253 51.93390702 29.95005253 51.93390702 27.53466797 49.55957031 C23.84499767 44.55377981 20.96372789 38.89118368 19 33 C30.55 33 42.1 33 54 33 C55.65 36.63 57.3 40.26 59 44 C68.17684109 60.72224376 81.34898107 71.83524223 99.875 77.3125 C117.12382563 80.77669929 134.94633687 78.66619311 149.97265625 69.109375 C155.14827913 65.45927219 159.58736233 61.52198875 164 57 C160.33360752 56.88271874 156.6677048 56.81239109 153 56.75 C151.97003906 56.71648437 150.94007813 56.68296875 149.87890625 56.6484375 C143.11643677 56.56229139 138.75900441 57.52385975 133 61 C120.59951358 65.80835188 107.14297077 64.93374231 95.00390625 59.7109375 C81.88248986 52.90454397 74.37041615 43.34713101 68.7265625 29.77734375 C67.63884145 25.61944233 67.42764936 21.27649357 67 17 C47.86 17 28.72 17 9 17 C0 1 0 1 0 0 Z " fill="#03989E" transform="translate(161,235)"/>
<path d="M0 0 C24.63429413 -0.60869622 45.4750114 8.72827121 63.1875 25.49609375 C78.40497665 41.32084059 85.84843048 63.37006363 85.66796875 85.09765625 C85.5 87.12109375 85.5 87.12109375 84.5 90.12109375 C67.67 90.12109375 50.84 90.12109375 33.5 90.12109375 C33.5 86.16109375 33.5 82.20109375 33.5 78.12109375 C31.7605452 69.62846147 28.48831993 62.67798275 21.25390625 57.51953125 C19.03040609 56.23717534 16.86520675 55.11760218 14.5 54.12109375 C13.72151199 53.77269943 12.94302399 53.42430511 12.14094543 53.06535339 C6.73444414 51.66320632 1.49587855 51.94021395 -4.0637207 52.0402832 C-6.00422342 52.06184864 -7.94472658 52.08338865 -9.88523996 52.10397279 C-11.96352836 52.12725097 -14.04172947 52.15489509 -16.11995888 52.18291664 C-20.46209513 52.23845765 -24.80409667 52.26467496 -29.14653015 52.28349304 C-30.24816206 52.28839539 -30.24816206 52.28839539 -31.37204915 52.29339677 C-32.87340307 52.29992725 -34.37475748 52.30634517 -35.87611234 52.31265295 C-45.97872358 52.35528038 -56.07983706 52.41266866 -66.18139648 52.57006836 C-73.00591279 52.67619474 -79.82854142 52.72887162 -86.65390843 52.72011346 C-90.26156723 52.71755003 -93.86450791 52.7416678 -97.47115517 52.83111 C-119.39435377 53.35238226 -119.39435377 53.35238226 -124.61239243 49.60342026 C-128.39733293 45.45402688 -131.5 39.8634507 -131.5 34.12109375 C-112.93202658 34.02744642 -94.36410142 33.95701492 -75.7959404 33.91384506 C-67.17345003 33.89326333 -58.55110682 33.8652272 -49.92871094 33.81933594 C-42.40907539 33.77933318 -34.88954649 33.75362907 -27.36980748 33.74473977 C-23.39206179 33.73954764 -19.41462105 33.72743713 -15.43697357 33.69817352 C-11.68423679 33.67079127 -7.93192724 33.66269412 -4.17910004 33.66866302 C-2.16316748 33.66705758 -0.14728022 33.64565522 1.86853027 33.62341309 C15.66809009 33.68519709 27.43068882 37.84892423 37.75390625 47.15234375 C44.55416907 54.27519968 48.88351674 62.42219418 50.5 72.12109375 C55.78 72.12109375 61.06 72.12109375 66.5 72.12109375 C61.08290461 53.47991256 53.76401852 37.78219945 36.32421875 27.58203125 C23.79739093 21.10204009 12.71906767 18.8370574 -1.28515625 18.70703125 C-2.58198837 18.6876651 -3.8788205 18.66829895 -5.21495056 18.64834595 C-8.63261009 18.59741262 -12.0503086 18.55758172 -15.46813965 18.52020264 C-18.96778702 18.47991702 -22.46727767 18.42893785 -25.96679688 18.37890625 C-32.81108289 18.28260773 -39.65546997 18.19805835 -46.5 18.12109375 C-41.27202597 12.69283992 -41.27202597 12.69283992 -38.00390625 11.0234375 C-37.36976807 10.69867432 -36.73562988 10.37391113 -36.08227539 10.03930664 C-35.41574951 9.71567139 -34.74922363 9.39203613 -34.0625 9.05859375 C-33.36310303 8.71497803 -32.66370605 8.3713623 -31.94311523 8.01733398 C-21.72634143 3.15412658 -11.28665353 0.54669728 0 0 Z " fill="#03989E" transform="translate(273.5,167.87890625)"/>
</svg>
